<?xml version="1.0" encoding="UTF-8" standalone="no"?>
<!-- Created with Inkscape (http://www.inkscape.org/) -->

<svg
   width="5.47366mm"
   height="7.0611639mm"
   viewBox="0 0 5.4736599 7.061164"
   version="1.1"
   id="svg1088"
   inkscape:export-filename="bluedot.png"
   inkscape:export-xdpi="96"
   inkscape:export-ydpi="96"
   inkscape:version="1.2.2 (b0a8486541, 2022-12-01)"
   sodipodi:docname="wasser.svg"
   xmlns:inkscape="http://www.inkscape.org/namespaces/inkscape"
   xmlns:sodipodi="http://sodipodi.sourceforge.net/DTD/sodipodi-0.dtd"
   xmlns="http://www.w3.org/2000/svg"
   xmlns:svg="http://www.w3.org/2000/svg">
  <sodipodi:namedview
     id="namedview1090"
     pagecolor="#ffffff"
     bordercolor="#000000"
     borderopacity="0.25"
     inkscape:showpageshadow="2"
     inkscape:pageopacity="0.0"
     inkscape:pagecheckerboard="0"
     inkscape:deskcolor="#d1d1d1"
     inkscape:document-units="mm"
     showgrid="true"
     inkscape:zoom="27.319506"
     inkscape:cx="16.49005"
     inkscape:cy="14.000985"
     inkscape:window-width="1854"
     inkscape:window-height="1011"
     inkscape:window-x="1986"
     inkscape:window-y="32"
     inkscape:window-maximized="1"
     inkscape:current-layer="layer1">
    <inkscape:grid
       type="xygrid"
       id="grid2043"
       originx="-101.77358"
       originy="-35.62775" />
  </sodipodi:namedview>
  <defs
     id="defs1085" />
  <g
     inkscape:label="Ebene 1"
     inkscape:groupmode="layer"
     id="layer1"
     transform="translate(-101.77362,-35.62775)">
    <path
       style="fill:#f0f0ff;fill-opacity:0.50196081;stroke:#1561d6;stroke-width:0.182;stroke-linejoin:round;stroke-opacity:1"
       d="m 101.86462,40.216667 2.64583,2.38125 2.64583,-2.38125 V 35.71875 h -5.29166 z"
       id="path14237" />
    <path
       id="path15039"
       style="fill:#1561d6;fill-opacity:0.1254902;stroke:#1561d6;stroke-width:1.13385828;stroke-linejoin:round;stroke-opacity:1;stroke-dasharray:none"
       inkscape:transform-center-x="-0.021340032"
       inkscape:transform-center-y="0.16352149"
       transform="matrix(0.26458333,0,0,0.26458333,103.82579,37.515217)"
       d="M 9.3439495,4.3439369 C 9.3749183,6.9452386 3.091669,3.0875032 1.5877166,5.2102035 0.7157325,6.4409345 4.0338109,9.1362236 2.6049555,9.6193665 0.1405404,10.452666 1.8678341,3.284835 -0.61572077,2.5104416 -2.0556734,2.0614522 -3.5937031,6.0500226 -4.4947399,4.8403997 -6.048801,2.7541054 1.3019746,2.1818777 1.2710058,-0.41942407 1.2530502,-1.9276457 -3.015583,-2.1578628 -2.1435989,-3.3885938 -0.63964639,-5.5112942 2.1760891,1.3028808 4.6405042,0.46958127 6.0693597,-0.01356161 4.969229,-4.1444141 6.4091816,-3.6954247 8.8927365,-2.9210313 3.282181,1.8625881 4.8362421,3.9488824 5.7372789,5.1585053 9.3259939,2.8357153 9.3439495,4.3439369 Z"
       sodipodi:nodetypes="aaaaaaaaaaa" />
  </g>
</svg>
